<svg xmlns="http://www.w3.org/2000/svg" viewBox="0 0 103.89 76.9"><defs><style>.cls-1{fill:#fff;}</style></defs><g id="Layer_2" data-name="Layer 2"><g id="Layer_1-2" data-name="Layer 1"><path id="N07" d="M103.89,73.45h-13L75.17,39.63l-1.41,0H60v33.8H48.7v-70H75.11c12.53,0,25.79,4.27,25.79,17.79,0,11.71-10.7,16-15.25,17.21ZM89.74,22c0-10.67-5.28-15.54-14.84-15.54H60V36.63H74.34C83,36.63,89.74,33.17,89.74,22Z"/><g id="N01"><path d="M31.72,75.9c-18.66,0-28.63-8.05-30.48-24.6l-.12-1.11H14.67l0,1c.36,9.3,6.43,19.18,17,19.18,8.82,0,14.3-5,14.3-13.1,0-7.83-6.45-11.9-10.31-14.33L35,42.49c-1.9-1.21-4.51-2.92-7.16-4.65s-5.52-3.6-7.61-4.94C17.37,31.06,9.73,26.18,9.73,16.64S17.58,1,30.22,1C43.4,1,51.35,5.89,53.85,15.54l.32,1.25H40.53l-.11-.86c-1-7.75-6-9.37-10.06-9.37-5.52,0-8.56,2.69-8.56,7.57,0,5.29,5.08,8.51,8.79,10.86l.65.41L38,29.78l6.28,4.06.24.15c5.3,3.38,15.16,9.68,15.16,21.08C59.7,67.53,48.46,75.9,31.72,75.9Z"/><path class="cls-1" d="M30.22,2c8,0,19.52,1.69,22.66,13.79H41.41c-1.1-8.2-6.44-10.23-11-10.23-6.11,0-9.56,3.22-9.56,8.57,0,6.18,6.1,9.68,9.91,12.11,2.12,1.36,11.07,7.17,13,8.44C48.81,37.91,58.7,44,58.7,55.07c0,12.72-11.74,19.83-27,19.83C9.33,74.9,3.55,63,2.24,51.19H13.71c.37,9.54,6.52,20.14,18,20.14,8.9,0,15.3-5,15.3-14.1,0-8.85-7.59-13.14-11.41-15.58s-10.65-7-14.77-9.6c-3.86-2.46-10.06-7-10.06-15.41C10.73,6.33,19.87,2,30.22,2m0-2C17,0,8.73,6.38,8.73,16.64c0,10.08,8,15.18,11,17.1,2.09,1.33,4.89,3.17,7.6,4.94s5.26,3.44,7.17,4.65l.65.41C39.05,46.22,45,50,45,57.23c0,7.57-5,12.1-13.3,12.1-9.91,0-15.62-9.39-16-18.22l-.08-1.92H0l.25,2.22C2.16,68.56,12.46,76.9,31.72,76.9c17.34,0,29-8.77,29-21.83,0-12-10.55-18.68-15.62-21.92L44.84,33l-6.28-4.06c-2.82-1.82-5.69-3.69-6.78-4.38l-.65-.42c-3.52-2.22-8.33-5.27-8.33-10,0-5.43,4.11-6.57,7.56-6.57,5.26,0,8.31,2.86,9.06,8.5l.24,1.73h15.8l-.64-2.5C52.18,5.14,43.91,0,30.22,0Z"/></g></g></g></svg>