<svg xmlns="http://www.w3.org/2000/svg" viewBox="0 0 410.35 160.3"><defs><style>.cls-1{fill:none;stroke:#000;stroke-miterlimit:10;}</style></defs><g id="Layer_2" data-name="Layer 2"><g id="Layer_1-2" data-name="Layer 1"><path id="N01" class="cls-1" d="M27.45,1.45A25.57,25.57,0,0,1,32.7,4.2a7.28,7.28,0,0,0,3.4,1.4,1.54,1.54,0,0,0,1.4-1,12.1,12.1,0,0,0,.8-3.35h2.3Q40.11,7,40.1,21.6H37.8A25.89,25.89,0,0,0,33.15,8Q29.1,2.4,21.4,2.4a12.2,12.2,0,0,0-8.8,3.25A11,11,0,0,0,9.2,14,12.18,12.18,0,0,0,11,20.6a17.38,17.38,0,0,0,4.45,4.8q2.7,2,7.7,5.1L26,32.3a99.16,99.16,0,0,1,10,6.85A24.55,24.55,0,0,1,41.8,45.9,17.41,17.41,0,0,1,44,54.8q0,9.11-6,14t-15.2,5a25.58,25.58,0,0,1-7.85-1A28.64,28.64,0,0,1,9.1,70.1a7.28,7.28,0,0,0-3.4-1.4,1.54,1.54,0,0,0-1.4,1,12.1,12.1,0,0,0-.8,3.35H1.2q.41-5.5.4-24H3.9q.71,10.09,5,16.4t13.2,6.3a13.44,13.44,0,0,0,9.2-3.35q3.79-3.35,3.8-10A13.2,13.2,0,0,0,31.35,49Q27.6,45.1,19.5,40.2A110.54,110.54,0,0,1,10,33.8,23.14,23.14,0,0,1,4,27.05,18.09,18.09,0,0,1,1.7,17.8Q1.7,9.4,7.1,5A20.36,20.36,0,0,1,20.5.5,20.59,20.59,0,0,1,27.45,1.45Z"/><path id="N02" class="cls-1" d="M122,70.4v2c-2.67-.2-6.23-.3-10.7-.3q-8.6,0-12.8.3v-2a16.29,16.29,0,0,0,5.45-1,2.76,2.76,0,0,0,1.65-2.75,13.76,13.76,0,0,0-1.2-4.7L98.3,45.6H74.1L70,56.2a26.25,26.25,0,0,0-2,8.2,5,5,0,0,0,2.15,4.5c1.43.93,3.62,1.43,6.55,1.5v2q-5.7-.3-11.5-.3-4.5,0-7.5.3v-2q5-1.2,7.9-8.7L89.1,1.1h1.6L115.1,64Q117.5,70.19,122,70.4ZM97.5,43.6,86.3,13.7,74.9,43.6Z"/><path id="N03" class="cls-1" d="M195,70.4v2q-4-.3-10.7-.3-8.6,0-12.8.3v-2a16.29,16.29,0,0,0,5.45-1,2.76,2.76,0,0,0,1.65-2.75,13.76,13.76,0,0,0-1.2-4.7l-6.1-16.4H147.1L143,56.2a26.25,26.25,0,0,0-2,8.2,5,5,0,0,0,2.15,4.5q2.15,1.39,6.55,1.5v2q-5.7-.3-11.5-.3-4.5,0-7.5.3v-2q5-1.2,7.9-8.7L162.1,1.1h1.6L188.1,64Q190.5,70.19,195,70.4ZM170.5,43.6,159.3,13.7,147.9,43.6Z"/><path id="N04" class="cls-1" d="M260.4,10.45q8.79,8.85,8.8,25.75a40.63,40.63,0,0,1-4.3,19.1A30,30,0,0,1,252.45,68Q244.29,72.41,233,72.4l-5.8-.1q-5.61-.19-8.2-.2-8.2,0-12.4.3v-2a19.78,19.78,0,0,0,5.25-.8,3.6,3.6,0,0,0,2.25-2.3,18.06,18.06,0,0,0,.6-5.5V12.2a18.06,18.06,0,0,0-.6-5.5,3.6,3.6,0,0,0-2.25-2.3,19.78,19.78,0,0,0-5.25-.8v-2c2.33.2,5.57.3,9.7.3l8.5-.1c4.53-.13,7.57-.2,9.1-.2Q251.6,1.6,260.4,10.45ZM226.75,4.1a4,4,0,0,0-2.15,2.5A18.2,18.2,0,0,0,224,12V62a18.2,18.2,0,0,0,.6,5.4,4,4,0,0,0,2.15,2.5,12.1,12.1,0,0,0,4.75.7q10.6,0,16.7-3.85a20.41,20.41,0,0,0,8.55-11.25q2.44-7.39,2.45-18.9t-2.7-18.75A20.46,20.46,0,0,0,247.75,7q-6.06-3.6-16.35-3.6A11.74,11.74,0,0,0,226.75,4.1Z"/><path id="N05" class="cls-1" d="M346.2,70.4v2q-4-.3-10.7-.3-8.6,0-12.8.3v-2a16.29,16.29,0,0,0,5.45-1,2.76,2.76,0,0,0,1.65-2.75,13.76,13.76,0,0,0-1.2-4.7l-6.1-16.4H298.3l-4.1,10.6a26.25,26.25,0,0,0-2,8.2,5,5,0,0,0,2.15,4.5q2.14,1.39,6.55,1.5v2q-5.7-.3-11.5-.3-4.5,0-7.5.3v-2q5-1.2,7.9-8.7L313.3,1.1h1.6L339.3,64Q341.7,70.19,346.2,70.4ZM321.7,43.6,310.5,13.7,299.1,43.6Z"/><path id="N06" class="cls-1" d="M409.1,14.4c0,3.33.1,6.07.3,8.2h-2.3a61.13,61.13,0,0,0-2-11.45,9.38,9.38,0,0,0-4.2-5.5q-3-1.75-9.2-1.75h-5.4V60.8a17,17,0,0,0,.8,6.1,4.52,4.52,0,0,0,2.8,2.6,24.62,24.62,0,0,0,6.5.9v2q-5.2-.3-14.7-.3-10,0-14.8.3v-2a24.62,24.62,0,0,0,6.5-.9,4.52,4.52,0,0,0,2.8-2.6,17,17,0,0,0,.8-6.1V3.9h-5.4c-4.14,0-7.2.58-9.2,1.75a9.38,9.38,0,0,0-4.2,5.5,61.13,61.13,0,0,0-2,11.45h-2.3c.2-2.13.3-4.87.3-8.2q0-5.7-.7-12.8,8.29.3,28.2.3t28.1-.3Q409.1,8.7,409.1,14.4Z"/><path id="N07" class="cls-1" d="M62.3,153.4a17.3,17.3,0,0,1-4.6,4.9,11,11,0,0,1-6.1,1.5,9.68,9.68,0,0,1-6.75-2.4q-2.66-2.4-4-8.4l-2.2-10a67,67,0,0,0-2.25-8,10.26,10.26,0,0,0-3.15-4.5,9.17,9.17,0,0,0-5.9-1.7H17.9v23a18.06,18.06,0,0,0,.6,5.5,3.6,3.6,0,0,0,2.25,2.3,19.78,19.78,0,0,0,5.25.8v2q-4.61-.3-12.7-.3-8.6,0-12.8.3v-2a19.78,19.78,0,0,0,5.25-.8A3.6,3.6,0,0,0,8,153.3a18.06,18.06,0,0,0,.6-5.5V98.2A18.06,18.06,0,0,0,8,92.7a3.6,3.6,0,0,0-2.25-2.3A19.78,19.78,0,0,0,.5,89.6v-2q4.2.3,12.2.3l10.8-.1c1.27-.07,2.7-.1,4.3-.1q11.6,0,17.85,4.85A15.16,15.16,0,0,1,51.9,105.1,18.42,18.42,0,0,1,50.05,113a18.68,18.68,0,0,1-6.2,7.1A25.94,25.94,0,0,1,32.5,124.3l1.2.2q6.6,1.09,9.6,4t4.4,9.2l2.5,10.2a22.85,22.85,0,0,0,2.1,6.4,3.36,3.36,0,0,0,3,1.8,4.5,4.5,0,0,0,2.85-.9,15.73,15.73,0,0,0,2.65-2.9ZM20.65,90.3a4,4,0,0,0-2.15,2.5,18.2,18.2,0,0,0-.6,5.4v24.6h6.7q9.9,0,13.6-4.4t3.7-12.2q0-8.2-3.9-12.4T25.3,89.6A11.74,11.74,0,0,0,20.65,90.3Z"/><path id="N08" class="cls-1" d="M178.9,89.6a13.83,13.83,0,0,0-5.2,1.05,4.45,4.45,0,0,0-2.3,2.8,20.81,20.81,0,0,0-.6,5.75v30.1a69.44,69.44,0,0,1-1,12.35,26.57,26.57,0,0,1-3.15,8.85,17.58,17.58,0,0,1-7.35,6.8,23.49,23.49,0,0,1-10.95,2.5q-11,0-16.8-5.4a20.32,20.32,0,0,1-5.9-9.3q-1.5-5.21-1.5-15.5V98.2a18.06,18.06,0,0,0-.6-5.5,3.6,3.6,0,0,0-2.25-2.3,19.78,19.78,0,0,0-5.25-.8v-2q4.2.3,12.8.3,8.1,0,12.7-.3v2a19.78,19.78,0,0,0-5.25.8,3.6,3.6,0,0,0-2.25,2.3,18.06,18.06,0,0,0-.6,5.5v33.1a67.3,67.3,0,0,0,1.1,13.3,15.51,15.51,0,0,0,4.55,8.5q3.45,3.19,10.15,3.2,10.6,0,14.9-6.8t4.3-19.1V99.2q0-5.4-1.95-7.4c-1.3-1.33-3.68-2.07-7.15-2.2v-2q3.6.3,10.2.3,6,0,9.3-.3Z"/><path id="N09" class="cls-1" d="M281.3,87.85a47.11,47.11,0,0,1,8.3,4.85,3.86,3.86,0,0,0,2,1q1.9,0,2.5-6.1h2.3q-.4,6.5-.4,23h-2.3a80.39,80.39,0,0,0-1.9-8.75,17.1,17.1,0,0,0-3.1-6,20.12,20.12,0,0,0-7.55-5.7A23.43,23.43,0,0,0,271.4,88a17.23,17.23,0,0,0-11.6,4.3q-5,4.31-7.7,12.25a57.7,57.7,0,0,0-2.7,18.55q0,18,5.75,26.35t18,8.35a17.56,17.56,0,0,0,10.4-3.1,6.5,6.5,0,0,0,2.35-2.35,7.39,7.39,0,0,0,.55-3.15v-9.6a17,17,0,0,0-.8-6.1,4.52,4.52,0,0,0-2.8-2.6,24.62,24.62,0,0,0-6.5-.9v-2q5.21.3,14.1.3,6.79,0,10.4-.3v2a8.54,8.54,0,0,0-3.35.8,3.21,3.21,0,0,0-1.4,2.3,30.73,30.73,0,0,0-.35,5.5v19.8h-2a12.59,12.59,0,0,0-.8-3.85c-.47-1.23-1.1-1.85-1.9-1.85a2.66,2.66,0,0,0-1.2.3,18.56,18.56,0,0,0-2.1,1.4,26.61,26.61,0,0,1-7.25,4,24.5,24.5,0,0,1-8.35,1.35q-10.31,0-17.65-4.25A27.87,27.87,0,0,1,243.3,143.3q-3.9-8-3.9-19.1a45.81,45.81,0,0,1,4.15-20A31.4,31.4,0,0,1,255,90.85a30.24,30.24,0,0,1,16.6-4.65A24.51,24.51,0,0,1,281.3,87.85Z"/><path id="N10" class="cls-1" d="M389.85,87.45a25.57,25.57,0,0,1,5.25,2.75,7.24,7.24,0,0,0,3.4,1.4,1.55,1.55,0,0,0,1.4-1,12.1,12.1,0,0,0,.8-3.35H403q-.51,5.8-.5,20.4h-2.3A25.89,25.89,0,0,0,395.55,94Q391.5,88.4,383.8,88.4a12.19,12.19,0,0,0-8.8,3.25,11,11,0,0,0-3.4,8.35,12.18,12.18,0,0,0,1.75,6.6,17.23,17.23,0,0,0,4.45,4.8q2.7,2,7.7,5.1l2.9,1.8a100.34,100.34,0,0,1,10,6.85,24.55,24.55,0,0,1,5.85,6.75,17.51,17.51,0,0,1,2.2,8.9q0,9.1-6,14t-15.2,5a25.58,25.58,0,0,1-7.85-1,28.15,28.15,0,0,1-5.85-2.7,7.28,7.28,0,0,0-3.4-1.4,1.54,1.54,0,0,0-1.4,1.05,11.74,11.74,0,0,0-.8,3.35h-2.3q.39-5.5.4-24h2.3q.69,10.1,5,16.4t13.2,6.3a13.46,13.46,0,0,0,9.2-3.35q3.8-3.34,3.8-9.95a13.2,13.2,0,0,0-3.75-9.5q-3.75-3.9-11.85-8.8a109,109,0,0,1-9.55-6.4,23,23,0,0,1-6-6.75,18,18,0,0,1-2.3-9.25q0-8.4,5.4-12.85a20.34,20.34,0,0,1,13.4-4.45A20.59,20.59,0,0,1,389.85,87.45Z"/></g></g></svg>