<svg xmlns="http://www.w3.org/2000/svg" viewBox="0 0 873.21 300">
    <defs>
        <style>
            .cls-1,
            .cls-2 {
                fill: none;
            }

            .cls-2 {
                stroke: #000;
                stroke-miterlimit: 10;
            }
        </style>
    </defs>
    <g id="Layer_2" data-name="Layer 2">
        <g id="logo">
            <polygon id="mask01" class="cls-1" points="200 300 0 300 173.21 0 373.2 0 200 300" />
            <polygon id="mask05" class="cls-1" points="700 300 500 300 673.21 0 873.21 0 700 300" />
            <polygon id="mask02" class="cls-1" points="300 300 200 300 373.2 0 473.2 0 300 300" />
            <polygon id="mask03" class="cls-1" points="400 300 300 300 473.2 0 573.21 0 400 300" />
            <polygon id="mask04" class="cls-1" points="500 300 400 300 573.21 0 673.21 0 500 300" />
            <path id="N01" class="cls-2"
                d="M273.72,77.24l-10.29,6A14.61,14.61,0,0,0,259.67,78a14.05,14.05,0,0,0-9-3c-3.77,0-6.67,1-8.72,2.89A9.4,9.4,0,0,0,238.85,85q0,6.53,9,10.16l8.4,3.39q19.7,8,19.7,24.58,0,11.92-7.59,19.39T249,150q-12.18,0-19.7-8.4a27.72,27.72,0,0,1-7-16.31L235,122.53a17.19,17.19,0,0,0,3.51,10.66,13.22,13.22,0,0,0,10.91,5,13.42,13.42,0,0,0,13.8-14.05q0-5.77-3.32-8.91a28.78,28.78,0,0,0-8.72-5.39l-8-3.39q-17.06-7.16-17.06-21.2a21.16,21.16,0,0,1,6.59-15.56q6.59-6.51,17.87-6.52,10.17,0,16.81,5.65A29.07,29.07,0,0,1,273.72,77.24Z" />
            <path id="N02" class="cls-2"
                d="M348.79,148.37,340,128.17H304.25l-9.16,20.2H281.3L322.94,59.8l39.64,88.57Zm-39.27-32.24h25.34L322.44,87.78Z" />
            <path id="N03" class="cls-2"
                d="M438.48,148.37l-8.78-20.2H394l-9.16,20.2H371L412.64,59.8l39.64,88.57Zm-39.26-32.24h25.34L412.14,87.78Z" />
            <path id="N04" class="cls-2"
                d="M464.07,64.7h17.56a78.18,78.18,0,0,1,17.31,1.69,36.48,36.48,0,0,1,13.8,6.46A39.22,39.22,0,0,1,524.6,87.4a43.92,43.92,0,0,1,4.2,19.2q0,21.95-16.81,33.74a39.6,39.6,0,0,1-13.8,6.4,75.11,75.11,0,0,1-16.81,1.63H464.07Zm12.8,12v59.59h5.51q14.31,0,22.21-5.9Q516,121.78,516,106.6a31.3,31.3,0,0,0-3.19-14.18,26.47,26.47,0,0,0-8.1-9.91q-8-5.78-22.33-5.77Z" />
            <path id="N05" class="cls-2"
                d="M599.1,148.37l-8.78-20.2H554.57l-9.16,20.2h-13.8L573.26,59.8l39.64,88.57Zm-39.26-32.24h25.34L572.76,87.78Z" />
            <path id="N06" class="cls-2" d="M659.71,76.74H640.52v71.63h-12.8V76.74H608.53v-12h51.18Z" />
            <path id="N07" class="cls-2"
                d="M227.31,156.94h14.92q14.8,0,22.08,4.89,9.92,6.64,9.91,19.69a23,23,0,0,1-18.56,23.34l26.09,35.75H266.32l-24-34.25H240.1v34.25H227.31Zm12.79,11.79v26.59h4q1.63,0,3.27-.12a26.21,26.21,0,0,0,4.45-.88,17.32,17.32,0,0,0,4.89-2.07,11.37,11.37,0,0,0,3.64-4.08,13,13,0,0,0,1.57-6.52q0-12.92-17.44-12.92Z" />
            <path id="N08" class="cls-2"
                d="M341.34,156.94h12.79v50.43q0,9.78,2.63,14.42a18.83,18.83,0,0,0,6.28,6.09,18,18,0,0,0,18.56,0,18.83,18.83,0,0,0,6.28-6.09q2.63-4.64,2.63-14.42V156.94h12.8v53.81q0,13.17-7.78,21.7-9,9.8-23.21,9.79t-23.21-9.79q-7.77-8.52-7.77-21.7Z" />
            <path id="N09" class="cls-2"
                d="M513.7,208.87V197.08h34.49v.63q0,21.82-12.42,33.87-11,10.66-28.47,10.66t-28.48-11.42Q466.4,218,466.4,199.21a45.71,45.71,0,0,1,3.39-17.62A41,41,0,0,1,478.57,168a42.65,42.65,0,0,1,13.86-9.1,45.1,45.1,0,0,1,17.63-3.45,44,44,0,0,1,21.83,5.27,37.71,37.71,0,0,1,13.54,12.54l-10.16,7.15A32.58,32.58,0,0,0,525,170.86a28.65,28.65,0,0,0-14.81-3.64q-13.43,0-22.07,8.66a29.13,29.13,0,0,0-6.53,10.41,36.4,36.4,0,0,0-2.38,13.05,32,32,0,0,0,8.65,22.7q7.9,8.42,20.95,8.41a25.63,25.63,0,0,0,18.7-7.4,22.86,22.86,0,0,0,7-14.18Z" />
            <path id="N10" class="cls-2"
                d="M657.71,169.48l-10.29,6a14.73,14.73,0,0,0-3.76-5.27,14.06,14.06,0,0,0-9-3c-3.76,0-6.67,1-8.71,2.89a9.41,9.41,0,0,0-3.08,7.15q0,6.53,9,10.16l8.41,3.39q19.69,8,19.69,24.58,0,11.93-7.59,19.39T633,242.24q-12.16,0-19.69-8.41a27.74,27.74,0,0,1-7-16.3l12.67-2.76a17.14,17.14,0,0,0,3.52,10.66,13.2,13.2,0,0,0,10.91,5,13.42,13.42,0,0,0,13.8-14q0-5.78-3.33-8.91a28.6,28.6,0,0,0-8.71-5.39l-8-3.39Q610,191.56,610,177.51A21.15,21.15,0,0,1,616.62,162q6.58-6.51,17.88-6.52,10.15,0,16.81,5.65A29.25,29.25,0,0,1,657.71,169.48Z" />
        </g>
    </g>
</svg>