<svg xmlns="http://www.w3.org/2000/svg" viewBox="0 0 472.69 194.43"><defs><style>.cls-1{fill:none;}</style></defs><g id="Layer_2" data-name="Layer 2"><g id="Layer_1-2" data-name="Layer 1"><g id="logo"><path id="N01" class="cls-1" d="M51.44,17.44l-10.28,6a14.55,14.55,0,0,0-3.77-5.27,14,14,0,0,0-9-3q-5.64,0-8.72,2.88A9.43,9.43,0,0,0,16.6,25.2q0,6.53,9,10.16L34,38.8q19.7,8,19.7,24.59,0,11.92-7.59,19.38T26.7,90.19q-12.16,0-19.7-8.4A27.8,27.8,0,0,1,0,65.48l12.67-2.76a17.18,17.18,0,0,0,3.51,10.67,13.25,13.25,0,0,0,10.91,5,13.42,13.42,0,0,0,9.85-3.89,13.55,13.55,0,0,0,4-10.16q0-5.76-3.32-8.9A28.82,28.82,0,0,0,28.9,50l-8-3.38Q3.76,39.52,3.74,25.46A21.14,21.14,0,0,1,10.33,9.91Q16.92,3.39,28.2,3.39,38.37,3.39,45,9A28.89,28.89,0,0,1,51.44,17.44Z"/><path id="N02" class="cls-1" d="M132.44,88.56l-8.78-20.19H87.94L78.79,88.56H65L106.63,0l39.65,88.56ZM93.21,56.32h25.34L106.13,28Z"/><path id="N03" class="cls-1" d="M230.17,88.56l-8.73-20.19h-35.8l-9.2,20.19h-13.8L204.33,0,244,88.56ZM190.91,56.32h25.34L203.83,28Z"/><path id="N04" class="cls-1" d="M263.76,4.89h17.56a78.7,78.7,0,0,1,17.32,1.69,36.54,36.54,0,0,1,13.8,6.47A39,39,0,0,1,324.29,27.6a43.91,43.91,0,0,1,4.2,19.2q0,22-16.81,33.75a39.26,39.26,0,0,1-13.8,6.39,75.3,75.3,0,0,1-16.81,1.63H263.76Zm12.8,12V76.52h5.52q14.3,0,22.2-5.89Q315.7,62,315.7,46.8a31.38,31.38,0,0,0-3.2-14.18,26.47,26.47,0,0,0-8.09-9.9q-8-5.77-22.33-5.78Z"/><path id="N05" class="cls-1" d="M402.79,88.56,394,68.37H358.26L349.1,88.56H335.3L377,0l39.64,88.56ZM363.53,56.32h25.34L376.44,28Z"/><path id="N06" class="cls-1" d="M472.44,16.93h-19.2V88.56h-12.8V16.93h-19.2v-12h51.2Z"/><path id="N07" class="cls-1" d="M1,109.13H15.92q14.81,0,22.08,4.89,9.91,6.66,9.91,19.7a23,23,0,0,1-18.56,23.33L55.44,192.8H40L16,158.56H13.79V192.8H1Zm12.79,11.79v26.6h4a27.42,27.42,0,0,0,3.26-.13,24.86,24.86,0,0,0,4.45-.88,17.44,17.44,0,0,0,4.94-2.07,11.14,11.14,0,0,0,3.64-4.07,13.07,13.07,0,0,0,1.54-6.57q0-12.92-17.44-12.92Z"/><path id="N08" class="cls-1" d="M132,109.13h12.79v50.43q0,9.78,2.64,14.43a18.6,18.6,0,0,0,6.27,6.08,18,18,0,0,0,18.56,0,18.73,18.73,0,0,0,6.28-6.08q2.63-4.65,2.63-14.43V109.13H194V163q0,13.17-7.78,21.7-9,9.78-23.21,9.78t-23.21-9.78Q132,176.12,132,163Z"/><path id="N09" class="cls-1" d="M315.44,161.07v-11.8h34.5v.63q0,21.82-12.42,33.87-11,10.66-28.48,10.66T280.56,183q-12.4-12.79-12.41-31.61a45.78,45.78,0,0,1,3.29-17.61,41.23,41.23,0,0,1,8.78-13.61,43,43,0,0,1,13.87-9.09,44.93,44.93,0,0,1,17.62-3.45,44.06,44.06,0,0,1,21.83,5.26,37.85,37.85,0,0,1,13.55,12.55l-10.17,7.15a32.41,32.41,0,0,0-10.28-9.53,28.57,28.57,0,0,0-14.8-3.64q-13.43,0-22.08,8.65a29.16,29.16,0,0,0-6.53,10.42,36.33,36.33,0,0,0-2.38,13,32.11,32.11,0,0,0,8.66,22.71q7.9,8.4,20.95,8.4a25.58,25.58,0,0,0,18.69-7.4,22.79,22.79,0,0,0,7-14.17Z"/><path id="N10" class="cls-1" d="M470.44,121.68l-10.29,6a14.52,14.52,0,0,0-3.76-5.27,14,14,0,0,0-9-3c-3.77,0-6.67,1-8.72,2.88a9.42,9.42,0,0,0-3.08,7.15q0,6.52,9,10.16L453,143q19.69,8,19.7,24.59,0,11.91-7.59,19.38t-19.38,7.46q-12.18,0-19.7-8.4a27.67,27.67,0,0,1-7-16.31L431.69,167a17.15,17.15,0,0,0,3.51,10.66,13.2,13.2,0,0,0,10.91,5,13.46,13.46,0,0,0,9.85-3.89,13.61,13.61,0,0,0,4-10.16q0-5.76-3.32-8.9a29.14,29.14,0,0,0-8.72-5.4l-8-3.39q-17.13-7.06-17.14-21.17a21.14,21.14,0,0,1,6.58-15.55q6.6-6.53,17.88-6.52,10.15,0,16.81,5.64A29.37,29.37,0,0,1,470.44,121.68Z"/></g></g></g></svg>