<svg xmlns="http://www.w3.org/2000/svg" viewBox="0 0 501.6 199.7">
    <defs>
        <style>
            .cls-1 {
                fill: none;
                stroke: #000;
                stroke-miterlimit: 10;
            }
        </style>
    </defs>
    <g id="Layer_2" data-name="Layer 2">
        <g id="Layer_1-2" data-name="Layer 1">
            <path id="N01" class="cls-1"
                d="M33.3,79.2q-20.8,0-31.6-13.9a15.54,15.54,0,0,1,2.2-1.5A33.65,33.65,0,0,0,15,73.5q7.09,3.9,18.1,3.9a34.23,34.23,0,0,0,14.25-3,21.4,21.4,0,0,0,9.75-8,10.88,10.88,0,0,0,1.6-6q0-6.3-9.1-10.4-6.19-3-21-5.2c-3.67-.53-6.83-1.1-9.5-1.7Q.5,39,.5,24.4V23A16.92,16.92,0,0,1,4.9,11.7,30.24,30.24,0,0,1,16.7,3.6,43.83,43.83,0,0,1,33.3.6l.8-.1A43,43,0,0,1,50.05,3.6,26,26,0,0,1,62.5,13.7l-1.7.9Q51.8,2.41,33.1,2.4A33.64,33.64,0,0,0,18.2,6.3Q9,11.21,9,18.6a12.25,12.25,0,0,0,4.05,8.2q3.75,3.6,10.75,5.1,4.61,1.1,10.1,2c3.13.53,6.27,1.15,9.4,1.85a84,84,0,0,1,9.05,2.55,31.69,31.69,0,0,1,7.75,3.85A17.74,17.74,0,0,1,65.5,48a17.48,17.48,0,0,1-2.6,20,31.81,31.81,0,0,1-12.4,8.2A46.91,46.91,0,0,1,33.3,79.2Z" />
            <path id="N02" class="cls-1"
                d="M117.8,1.4,158,77.5H144.8L131.6,52.6H93.3L80.5,77.4h-2Zm13.1,49.8L112.3,16.1,94.1,51.2Z" />
            <path id="N03" class="cls-1"
                d="M211.9,1.4l40.2,76.1H238.9L225.7,52.6H187.4L174.6,77.4h-2ZM225,51.2,206.4,16.1,188.2,51.2Z" />
            <path id="N04" class="cls-1"
                d="M297.8,77.7h-7.1q-3.6,0-7.5,0t-13-.05V1.4h18.5q12.39,0,23.7.4a37.89,37.89,0,0,1,16.25,3.8A29.63,29.63,0,0,1,341.2,17.5q4.89,8.2,5.4,21.9-.51,11.6-6,20a38.76,38.76,0,0,1-13.9,13A40.36,40.36,0,0,1,308.8,77.4C306.06,77.53,302.4,77.63,297.8,77.7Zm-8.1-1.6q13.89,0,20.1-1.2a26,26,0,0,0,13.6-8A36.68,36.68,0,0,0,331,53.45,47.68,47.68,0,0,0,333.3,39.4q0-12.1-4.1-21A25.27,25.27,0,0,0,312.4,4.1Q307.39,3,292.5,3h-8.8V76Q286.4,76.1,289.7,76.1Z" />
            <path id="N05" class="cls-1"
                d="M395.1,1.4l40.2,76.1H422.1L408.9,52.6H370.6L357.8,77.4h-2Zm13.1,49.8L389.6,16.1,371.4,51.2Z" />
            <path id="N06" class="cls-1" d="M467,3.1V77.7H453.5V3.1h-33V1.6h80.6V3.1Z" />
            <path id="N07" class="cls-1"
                d="M34.9,160.3h-16l.2,37.4H5.5V120.9q18.39,0,24.4-.1h17q12.49.2,19.9,4,11.1,5.7,11.1,15.1a19.47,19.47,0,0,1-1.9,7.3q-1.91,4.4-9.3,8.5-6.51,3.5-16.7,4.4l34.7,37.6H70.4Zm12.3-1.5a13.2,13.2,0,0,0,8.7-4,21.61,21.61,0,0,0,5.4-9.15,22.37,22.37,0,0,0,1.3-7.4,41.3,41.3,0,0,0-.5-5.2c-.34-2.33-1.75-4.7-4.25-7.1s-6.25-3.6-11.25-3.6l-10.4.1-17.1-.2-.2,36.5Z" />
            <path id="N08" class="cls-1"
                d="M181.7,197.7q-35,0-35.8-24.4V121l13.4-.1v52.8a42,42,0,0,0,1.9,10.85,15.29,15.29,0,0,0,6.3,8.1q4.69,3.15,14.2,3.55a38,38,0,0,0,13.3-2.45,31.6,31.6,0,0,0,11.15-6.85,16.65,16.65,0,0,0,5.25-10.1V120.9h1.8v56a15.92,15.92,0,0,1-5.3,10.75A35.33,35.33,0,0,1,195.75,195,40.15,40.15,0,0,1,181.7,197.7Z" />
            <path id="N09" class="cls-1"
                d="M327.6,198a51.5,51.5,0,0,1-18-3.1,47,47,0,0,1-14.8-8.7q-13.5-11.89-13.5-28.1a46.42,46.42,0,0,1,2.25-12.7q2.25-7.6,11.25-15.5a48.58,48.58,0,0,1,14.8-8.65,50.84,50.84,0,0,1,18-3.15q11.89.2,20.1,4T359,130.8l-1.9.9a24.59,24.59,0,0,0-9.6-7.8,36.32,36.32,0,0,0-15.5-3.5,47.23,47.23,0,0,0-13.65,2,25.43,25.43,0,0,0-11.9,7.75A37.61,37.61,0,0,0,299,142.7a45,45,0,0,0-2.5,14.9,42.33,42.33,0,0,0,8,25.6q10.69,12.3,24.6,12.3,10.29-.6,15-5.55a17.38,17.38,0,0,0,4.7-12.45V158.6H333.4v-1.4h29l-.1,3.3q-1,18.3-1.1,30.6-6.1.19-9.3.45a19.85,19.85,0,0,0-6.4,1.65Q334.7,198,327.6,198Z" />
            <path id="N10" class="cls-1"
                d="M457.9,199.2q-20.81,0-31.6-13.9a15.54,15.54,0,0,1,2.2-1.5,33.65,33.65,0,0,0,11.1,9.7q7.09,3.9,18.1,3.9a34.29,34.29,0,0,0,14.25-3,21.4,21.4,0,0,0,9.75-8,11,11,0,0,0,1.6-6q0-6.3-9.1-10.4-6.21-3-21-5.2-5.51-.8-9.5-1.7-18.6-4.09-18.6-18.7V143a16.87,16.87,0,0,1,4.4-11.3,30.17,30.17,0,0,1,11.8-8.1,43.8,43.8,0,0,1,16.6-3l.8-.1a43.05,43.05,0,0,1,15.95,3.1,26,26,0,0,1,12.45,10.1l-1.7.9q-9-12.19-27.7-12.2a33.6,33.6,0,0,0-14.9,3.9q-9.21,4.9-9.2,12.3a12.25,12.25,0,0,0,4,8.2q3.75,3.6,10.75,5.1,4.59,1.09,10.1,2,4.69.79,9.4,1.85A84,84,0,0,1,477,158.3a31.69,31.69,0,0,1,7.75,3.85,18,18,0,0,1,5.4,5.85A17.48,17.48,0,0,1,487.5,188a31.81,31.81,0,0,1-12.4,8.2A46.94,46.94,0,0,1,457.9,199.2Z" />
        </g>
    </g>
</svg>