<svg xmlns="http://www.w3.org/2000/svg" viewBox="0 0 435.4 193.9"><defs><style>.cls-1{fill:none;stroke:#000;stroke-miterlimit:10;}</style></defs><g id="Layer_2" data-name="Layer 2"><g id="Layer_1-2" data-name="Layer 1"><path id="N01" class="cls-1" d="M57,53.57c0,12.72-11.75,19.83-27,19.83C7.65,73.4,1.88,61.52.56,49.69H12c.37,9.54,6.53,20.14,18,20.14,8.89,0,15.29-5,15.29-14.1,0-8.85-7.59-13.14-11.41-15.58s-10.64-7-14.77-9.6c-3.86-2.46-10.06-7-10.06-15.41C9.05,4.83,18.2.5,28.54.5c8,0,19.52,1.69,22.66,13.79H39.73c-1.1-8.2-6.44-10.23-11-10.23-6.12,0-9.57,3.22-9.57,8.57,0,6.18,6.1,9.68,9.91,12.11,2.12,1.36,11.07,7.17,13.06,8.44C47.14,36.41,57,42.54,57,53.57Z"/><path id="N02" class="cls-1" d="M138.26,72H126.53l-7-14.45H79.44L72.63,72H69L97.43,11.56,92.8,2h11.74ZM116.79,51.73,99.29,15.41,82.16,51.73Z"/><path id="N03" class="cls-1" d="M217.36,72H205.63l-7-14.45H158.54L151.73,72h-3.67l28.47-60.39L171.9,2h11.74ZM195.89,51.73l-17.5-36.32L161.26,51.73Z"/><path id="N04" class="cls-1" d="M294.57,37.26c0,28.26-24.91,34.69-37.22,34.69H232.76V2H256.9C269.21,2,294.57,9,294.57,37.26Zm-11.82,0c0-27.78-18-31.85-26.3-31.85H244V68.48h12.41C264.76,68.48,282.75,64.58,282.75,37.26Z"/><path id="N05" class="cls-1" d="M371.86,72H360.12l-7-14.45H313L306.23,72h-3.67L331,11.56,326.4,2h11.74ZM350.38,51.73,332.89,15.41,315.76,51.73Z"/><path id="N06" class="cls-1" d="M434.35,2,430,7.26H406.18V72H394.89V7.26H370.46L374.81,2Z"/><path id="N07" class="cls-1" d="M59.49,192h-13L30.78,158.12l-1.41,0H15.59V192H4.31V122H30.72c12.53,0,25.79,4.27,25.79,17.79,0,11.71-10.7,16-15.25,17.21ZM45.34,140.5c0-10.67-5.27-15.54-14.83-15.54H15.59v30.17H29.94C38.64,155.13,45.34,151.67,45.34,140.5Z"/><path id="N08" class="cls-1" d="M179.52,122V169c0,13.77-10.88,24.38-29.41,24.38s-29.4-10.9-29.4-24.38V122H132V171.1c0,12,5.08,18.74,18.11,18.74s18.12-6.79,18.12-18.74V122Z"/><path id="N09" class="cls-1" d="M315.24,152.85V193.4h-.47l-10.37-6.52a44.52,44.52,0,0,1-23.75,6.44c-20.21,0-38.74-11.17-38.74-36.08,0-21.83,14.93-36.74,39.28-36.74,21,0,31.37,12.3,32.39,21.36H302.1c-1.84-12.13-10.08-18.18-20.91-18.18-14.23,0-27.5,11.85-27.5,33.56,0,23.41,15,32.52,27.5,32.52A41.17,41.17,0,0,0,304,182.63V158.17H274.37L270,152.85Z"/><path id="N10" class="cls-1" d="M432,173.57c0,12.72-11.74,19.83-27,19.83-22.39,0-28.16-11.88-29.48-23.71H387c.37,9.54,6.52,20.14,18,20.14,8.89,0,15.29-5,15.29-14.1,0-8.85-7.59-13.14-11.41-15.58s-10.65-7-14.77-9.6c-3.86-2.46-10.06-7-10.06-15.41,0-10.31,9.14-14.64,19.49-14.64,8,0,19.52,1.69,22.66,13.79H414.68c-1.1-8.2-6.44-10.23-11.05-10.23-6.11,0-9.56,3.22-9.56,8.57,0,6.18,6.1,9.68,9.91,12.11,2.12,1.36,11.07,7.17,13.06,8.44C422.08,156.41,432,162.54,432,173.57Z"/></g></g></svg>