<svg xmlns="http://www.w3.org/2000/svg" viewBox="0 0 417.36 200.57">
    <defs>
        <style>
            .cls-1 {
                fill: none;
                stroke: #000;
                stroke-miterlimit: 10;
            }
        </style>
    </defs>
    <g id="Layer_2" data-name="Layer 2">
        <g id="Layer_1-2" data-name="Layer 1">
            <path id="N01" class="cls-1"
                d="M41.77,6.42l-1.17,5.4C41,6.17,30.85,2.6,24.26,2.5c-8.17.1-13.49,6.15-13.67,13.67,0,9.13,6.61,15.25,15.76,20.44,1.79,1,3.54,1.87,5.38,2.9C43.25,45.82,49,51.21,49,60.84,49,71.28,40.4,80,23.1,80A30.1,30.1,0,0,1,5.59,74l1.17-5.4C6.4,74.29,16.51,77.86,23.1,78c9.81,0,18.64-4.67,18.76-11.8C42,57.74,34.93,52.22,27.47,48c-2.09-1.18-4.32-2.26-6.47-3.5-8.21-4.67-17.35-12-17.35-24.34C3.65,8.81,12.67.5,24.26.5A30,30,0,0,1,41.77,6.42Z" />
            <path id="N02" class="cls-1"
                d="M97.81.5c-2.74.62,1.91,14.26,4.32,20.91l.9,2.47,12,32.7C116.74,61.31,123.37,79.25,127,80H110.11c2.72-.61-1.86-14.08-4.28-20.78l-.1-.26H73.27l-.09.26c-2.43,6.7-7,20.17-4.29,20.78H60c3.67-.71,10.3-18.65,12-23.38L92.51.5ZM74,56.92h31L89.5,14.55Z" />
            <path id="N03" class="cls-1"
                d="M178.8.5c-2.73.62,1.92,14.26,4.33,20.91l.9,2.47,12,32.7c1.75,4.73,8.38,22.67,12,23.38H191.11c2.72-.61-1.86-14.08-4.28-20.78l-.1-.26H154.27l-.1.26c-2.42,6.7-7,20.17-4.28,20.78H141c3.67-.71,10.3-18.65,12-23.38L173.51.5ZM155,56.92h31L170.5,14.55Z" />
            <path id="N04" class="cls-1"
                d="M243.65.5c12.53,0,36,9.46,36,38.2v3.06c0,28.74-23.51,38.2-36,38.2H221c3.11-.65,3.38-15.65,3.4-21.86,0-1.86,0-4.1,0-6.1V23.88c0-4.73,0-22.67-3.4-23.38ZM233.86,78h5.24c16.14,0,31-15,31-36.2V38.7c0-20.88-14.45-35.76-30.32-36.19-.62,0-1.35,0-2,0h-3.93Z" />
            <path id="N05" class="cls-1"
                d="M323.51.5c-2.74.62,1.91,14.26,4.32,20.91l.9,2.47,12,32.7c1.75,4.73,8.38,22.67,12.05,23.38H335.81c2.72-.61-1.86-14.08-4.28-20.78l-.1-.26H299l-.09.26c-2.43,6.7-7,20.17-4.29,20.78h-8.94c3.67-.71,10.3-18.65,12.05-23.38L318.21.5ZM299.7,56.92h31L315.2,14.55Z" />
            <path id="N06" class="cls-1"
                d="M353.83.5H415.7l1.17,5.4c-.7-3.4-18.64-3.4-23.37-3.4h-4V56.58c0,4.73,0,22.67,3.41,23.38H376.61c3.4-.71,3.4-18.65,3.4-23.38V2.5h-4c-4.73,0-22.67,0-23.38,3.4L353.83.5Z" />
            <path id="N07" class="cls-1"
                d="M26,120.5c14.76.06,28.66,8.23,28.66,23.82v1.39c0,12.27-8.62,19.94-19.48,22.68l4,8c.72,1.43,1.34,2.67,2.07,4.06,3.65,7,10.25,18.95,13.31,19.53H37.17c2.46-.57-3-12.43-6.5-19.43-.52-1.06-1.2-2.41-1.82-3.62l-3.73-7.38H17.76v7.57c0,5.35.11,22.17,3.4,22.86H4.86c3.05-.64,3.36-15.14,3.4-21.53V143.88c0-4.73,0-22.67-3.4-23.38Zm-8.25,47h3.46C37.4,167.52,45,156.88,45,145.71v-1.39c0-11.17-7.56-21.82-23.74-21.82H17.76Z" />
            <path id="N08" class="cls-1"
                d="M140,120.5c-3.32.69-3.4,17.73-3.4,23v25.19c-.11,23.91,15.83,33,26.11,22.73,3.32-4.15,5.67-10.51,6.11-19.58.09-1.68.09-3.74.08-5.6V143.88c0-4.73,0-22.67-3.4-23.38h8.8c-3.32.69-3.4,17.73-3.4,23v25.19c0,11.08-2.57,18.9-6.63,24a19.58,19.58,0,0,1-30.55,0c-3.58-4.47-6-11-6.51-20.11-.15-2.64-.11-5.29-.11-8V143.88c0-4.73,0-22.67-3.41-23.38Z" />
            <path id="N09" class="cls-1"
                d="M287.27,121.06A30.58,30.58,0,0,1,300,126.54l-1.17,5.4c.36-5.7-9.93-9.28-16.51-9.32-16.37.16-29.58,17-29.58,37.73s13.2,37.56,29.56,37.73a26.32,26.32,0,0,0,8.2-1.47V168.38c-6.95.21-15.94.92-16.43,3.31v-8.8c.71,3.4,18.64,3.4,23.37,3.4h6C300,167,300,184.94,300,189.67v4.5l-1.9,1.27a30.31,30.31,0,0,1-11.38,4.29,33.65,33.65,0,0,1-11.27-.31,39.81,39.81,0,0,1-.79-78A34.21,34.21,0,0,1,287.27,121.06Z" />
            <path id="N10" class="cls-1"
                d="M408.47,126.42l-1.18,5.4c.36-5.65-9.75-9.22-16.33-9.32-8.17.1-13.49,6.15-13.67,13.67,0,9.13,6.61,15.25,15.76,20.44,1.79,1,3.54,1.87,5.38,2.9,11.52,6.31,17.29,11.7,17.29,21.33,0,10.44-8.63,19.12-25.92,19.12A30,30,0,0,1,372.29,194l1.17-5.4c-.36,5.65,9.75,9.22,16.34,9.32,9.8,0,18.63-4.67,18.75-11.8.15-8.42-6.92-13.94-14.38-18.17-2.09-1.18-4.32-2.26-6.48-3.5-8.21-4.67-17.34-12-17.34-24.34,0-11.34,9-19.65,20.61-19.65A30.1,30.1,0,0,1,408.47,126.42Z" />
        </g>
    </g>
</svg>