<svg xmlns="http://www.w3.org/2000/svg" viewBox="0 0 327.9 192.1">
    <defs>
        <style>
            .cls-1 {
                fill: none;
                stroke: #000;
                stroke-miterlimit: 10;
            }
        </style>
    </defs>
    <g id="Layer_2" data-name="Layer 2">
        <g id="Layer_1-2" data-name="Layer 1">
            <path id="N01" class="cls-1"
                d="M18.7.7a19.51,19.51,0,0,1,7.5.4,33.32,33.32,0,0,1,7.1,3.3q2.51,1.39,3.3.6v7.7q-1.2-4.39-6.2-7.9a16.77,16.77,0,0,0-5.8-2.5,14.85,14.85,0,0,0-5.4,0,8.27,8.27,0,0,0-6.9,6.4Q11,13.61,14.1,18.8q2.3,3.7,9.9,8.7,6.7,4.5,9.1,6.4,10.31,8.4,11.4,16.4a18.2,18.2,0,0,1-.1,5.7Q43,64.8,33.8,69a33.21,33.21,0,0,1-13,2.6A22.42,22.42,0,0,1,9.3,68.9Q.71,64.4.5,55.4a16.35,16.35,0,0,1,1.1-6,9.94,9.94,0,0,1,7.2-6.6,9.85,9.85,0,0,1,3.1-.1q5.8.79,6.8,5.5a5.86,5.86,0,0,1-1.6,6.1,1.29,1.29,0,0,0-.3.2c-.07-.87-.8-1.5-2.2-1.9a6.13,6.13,0,0,0-3.1.2c-2,.87-3,2.83-3.1,5.9a10.17,10.17,0,0,0,4.4,9,14.44,14.44,0,0,0,1.5,1,16,16,0,0,0,9.2,1.2q7.2-1.09,9.8-6.6,3.2-6.7-3-14.4a41,41,0,0,0-5.1-5l-5.6-4.1Q10.1,32.71,6.9,28.6a18.89,18.89,0,0,1-4.1-8.4Q1.11,11.1,7.5,5.3A19.41,19.41,0,0,1,18.7.7Z" />
            <path id="N02" class="cls-1"
                d="M79,.5h1.6L95.1,52.4q2.1,7.7,2.9,9.8a23.5,23.5,0,0,0,5.4,8,1,1,0,0,0,.2.3H83.1q2.7-2.59.4-11.6l-.9-3.6H65.2l-1.5,5.1Q62,67.49,64.9,70.5H55.6a28.08,28.08,0,0,0,6.7-10.9c.2-.6.4-1.23.6-1.9ZM73.9,24.2,65.6,53.8H82.2Z" />
            <path id="N03" class="cls-1"
                d="M141,.5h1.6l14.5,51.9q2.1,7.7,2.9,9.8a23.5,23.5,0,0,0,5.4,8,1,1,0,0,0,.2.3H145.1q2.7-2.59.4-11.6l-.9-3.6H127.2l-1.5,5.1q-1.71,7.09,1.2,10.1h-9.3a28.08,28.08,0,0,0,6.7-10.9c.2-.6.4-1.23.6-1.9Zm-5.1,23.7-8.3,29.6h16.6Z" />
            <path id="N04" class="cls-1"
                d="M179.6.5h16.7q9.39,0,17.2,7.1Q224,17.2,224,33.4q0,17-9.4,27.9-8,9.11-18.3,9.2H179.6q3.79-3.8,3.9-13.5V15.5q0-9.6-2.6-13.4A11,11,0,0,0,179.6.5ZM196.3,2V69q9.39,0,13.1-17.4a94,94,0,0,0,1.8-18.2q.09-15.6-5.6-24.9A15,15,0,0,0,200,2.9,8.62,8.62,0,0,0,196.3,2Z" />
            <path id="N05" class="cls-1"
                d="M254.4.5H256l14.5,51.9q2.1,7.7,2.9,9.8a23.5,23.5,0,0,0,5.4,8,1,1,0,0,0,.2.3H258.5q2.7-2.59.4-11.6l-.9-3.6H240.6l-1.5,5.1q-1.71,7.09,1.2,10.1H231a28.08,28.08,0,0,0,6.7-10.9c.2-.6.4-1.23.6-1.9Zm-5.1,23.7L241,53.8h16.6Z" />
            <path id="N06" class="cls-1"
                d="M279,.5h48.4V5.9Q323.59,2.11,314,2h-4.4V55.4q0,9.6,2.5,13.4a12,12,0,0,0,1.4,1.7H292.9q3.8-3.8,3.9-13.4V2h-2.7q-9.6,0-13.4,2.5A12.1,12.1,0,0,0,279,5.9Z" />
            <path id="N07" class="cls-1"
                d="M1.35,120.5h16.7q14.9,0,22.4,7.6a18.39,18.39,0,0,1,5.3,13.4q0,13.09-12.6,18.4a29.07,29.07,0,0,1-4.8,1.6q6.39.8,9.6,3.8,3.49,3.49,4.5,11,.3,2.1.6,6.5c.26,2.53,1,3.8,2.2,3.8.86-.07,1.4-.7,1.6-1.9a2.41,2.41,0,0,0,.1-.7h1.5a6.86,6.86,0,0,1-4.7,7,10.2,10.2,0,0,1-3.4.6,9.26,9.26,0,0,1-9-5.7,15.09,15.09,0,0,1-1.3-5.4q-.81-7.69-1.2-9.3-2.31-8.2-10.1-8.6h-.7v13q0,9.5,2.6,13.4a15.27,15.27,0,0,0,1.3,1.5H1.35q3.79-3.8,3.9-13.4V135.6q0-9.6-2.6-13.4A9,9,0,0,0,1.35,120.5Zm16.7,1.5v39.1q6.3-.19,10.9-6.8a21.64,21.64,0,0,0,4-12.7q-.11-14.3-8.5-18.3A15.45,15.45,0,0,0,18.05,122Z" />
            <path id="N08" class="cls-1"
                d="M93.35,120.5H114q-3.8,3.8-3.9,13.4v38q0,11.1,7.6,14.6a11.24,11.24,0,0,0,10,.1,13,13,0,0,0,1.4-1,17.37,17.37,0,0,0,5.6-10.8q.19-1.91.2-6.4V135.5q0-9.6-2.7-13.5a9.83,9.83,0,0,0-1.2-1.5h9.3c-2.54,2.53-3.83,7-3.9,13.4v34.5a48.62,48.62,0,0,1-.3,6.7,19.72,19.72,0,0,1-3.3,8.7q-5.7,7.8-16.1,7.8-11-.19-16.7-8.9a21.27,21.27,0,0,1-2.7-10.8V135.6q0-9.6-2.6-13.4A8.64,8.64,0,0,0,93.35,120.5Z" />
            <path id="N09" class="cls-1"
                d="M212.45,120.7a28.36,28.36,0,0,1,7.2.1q8.1,1.5,11.6,7.6a12.7,12.7,0,0,1,1.6,5.3q.5,6.5-4,9.7a6.74,6.74,0,0,1-2.1,1q-5.81,2.1-9.2-2a6.37,6.37,0,0,1-1.2-6.9c1.06,1.4,2.5,1.63,4.3.7l1-.6q3.19-2.5,2.5-7a7.21,7.21,0,0,0-5.3-6.1,15.92,15.92,0,0,0-3.1-.5q-13.11,0-14.1,29.7v4.5q0,22.91,7.4,29.8a8,8,0,0,0,5,2.2q3.69-.1,4.4-5.8a72,72,0,0,0,.3-7.9q0-9.9-2.9-13.9a6.38,6.38,0,0,0-1.1-1.2h20.7q-3.81,3.79-3.9,13.4v17.7q-5-3.19-17.2,0a15.72,15.72,0,0,1-10.9-.1q-9.3-3.41-13.2-16.6-3.51-11.7-1.2-26.4,3.19-21,18.1-25.7A34.89,34.89,0,0,1,212.45,120.7Z" />
            <path id="N10" class="cls-1"
                d="M300.55,120.7a19.54,19.54,0,0,1,7.5.4,33.54,33.54,0,0,1,7.1,3.3q2.49,1.39,3.3.6v7.7q-1.2-4.39-6.2-7.9a16.85,16.85,0,0,0-5.8-2.5,14.85,14.85,0,0,0-5.4,0,8.27,8.27,0,0,0-6.9,6.4q-1.31,4.91,1.8,10.1,2.3,3.7,9.9,8.7,6.69,4.5,9.1,6.4,10.29,8.4,11.4,16.4a18.51,18.51,0,0,1-.1,5.7q-1.41,8.81-10.6,13a33.25,33.25,0,0,1-13,2.6,22.4,22.4,0,0,1-11.5-2.7q-8.61-4.5-8.8-13.5a16.15,16.15,0,0,1,1.1-6,9.94,9.94,0,0,1,7.2-6.6,9.84,9.84,0,0,1,3.1-.1q5.79.8,6.8,5.5a5.88,5.88,0,0,1-1.6,6.1,1,1,0,0,0-.3.2c-.07-.87-.8-1.5-2.2-1.9a6.13,6.13,0,0,0-3.1.2c-2,.87-3,2.83-3.1,5.9a10.15,10.15,0,0,0,4.4,9,14.44,14.44,0,0,0,1.5,1,16,16,0,0,0,9.2,1.2q7.2-1.1,9.8-6.6,3.19-6.7-3-14.4a41,41,0,0,0-5.1-5l-5.6-4.1q-9.51-7.1-12.7-11.2a18.89,18.89,0,0,1-4.1-8.4q-1.71-9.1,4.7-14.9A19.38,19.38,0,0,1,300.55,120.7Z" />
        </g>
    </g>
</svg>